<svg xmlns="http://www.w3.org/2000/svg" viewBox="0 0 512 512" width="512" height="512">
  <defs>
    <path id="txtTop" d="M 82,256 A 174,174 0 1,1 430,256" />
    <path id="txtBottom" d="M 430, 256 A 174,174 0 0,1 82,256" />
    <clipPath id="innerClip"><circle cx="256" cy="256" r="160" /></clipPath>
  </defs>

  <!-- Outer Rings -->
  <circle cx="256" cy="256" r="240" fill="#0D47A1" stroke="#FFD700" stroke-width="8" />
  <circle cx="256" cy="256" r="220" fill="white" />
  <circle cx="256" cy="256" r="215" fill="#0D47A1" />
  <circle cx="256" cy="256" r="162" fill="white" />

  <!-- Center Shield and Book -->
   <g transform="translate(0, -10)">
    <path d="M 256, 180 L 160, 220 L 160, 300 C 160, 360 256, 400 256, 400 C 256, 400 352, 360 352, 300 L 352, 220 Z" fill="#E3F2FD" stroke="#0D47A1" stroke-width="4"/>
    <path d="M 216, 250 C 216,240 296,240 296,250 L 296, 330 C 296,340 216,340 216,330 Z" fill="#FFFFFF" stroke="#0D47A1" stroke-width="2" />
    <path d="M 256, 255 L 256, 325" stroke="#0D47A1" stroke-width="2" />
    <path d="M 226, 260 L 246, 265" stroke="#0D47A1" stroke-width="2" />
    <path d="M 226, 275 L 246, 280" stroke="#0D47A1" stroke-width="2" />
    <path d="M 226, 290 L 246, 295" stroke="#0D47A1" stroke-width="2" />
    <path d="M 266, 260 L 286, 265" stroke="#0D47A1" stroke-width="2" />
    <path d="M 266, 275 L 286, 280" stroke="#0D47A1" stroke-width="2" />
    <path d="M 266, 290 L 286, 295" stroke="#0D47A1" stroke-width="2" />
  </g>
  
  <text x="256" y="278" font-family="'Times New Roman', serif" font-weight="900" font-size="64" fill="#0D47A1" text-anchor="middle">F</text>
  
  <!-- Ring Text -->
  <text font-family="'Times New Roman', serif" font-weight="900" font-size="32" fill="#FFFFFF" letter-spacing="2">
    <textPath href="#txtTop" startOffset="50%" text-anchor="middle">DEPARTMENT OF FINANCE</textPath>
  </text>
  
  <text font-family="'Times New Roman', serif" font-weight="900" font-size="28" fill="#FFFFFF" letter-spacing="1">
     <textPath href="#txtBottom" startOffset="50%" text-anchor="middle">ADEKUNLE AJASIN UNIVERSITY</textPath>
  </text>
</svg>
